<?xml version="1.0" encoding="UTF-8"?>
<svg xmlns="http://www.w3.org/2000/svg" xmlns:xlink="http://www.w3.org/1999/xlink" width="32pt" height="32pt" viewBox="0 0 32 32" version="1.1">
<g id="surface1">
<path style=" stroke:none;fill-rule:nonzero;fill:rgb(0%,66.666667%,30.980392%);fill-opacity:1;" d="M 10.558594 20.421875 C 9.929688 21.050781 9.929688 22.09375 10.558594 22.722656 C 11.1875 23.347656 12.226562 23.347656 12.855469 22.722656 C 14.589844 20.988281 17.410156 20.988281 19.121094 22.722656 C 19.445312 23.046875 19.859375 23.199219 20.269531 23.199219 C 20.683594 23.199219 21.09375 23.046875 21.421875 22.722656 C 22.046875 22.09375 22.046875 21.050781 21.421875 20.421875 C 18.429688 17.429688 13.550781 17.429688 10.558594 20.421875 Z M 10.558594 20.421875 "/>
<path style=" stroke:none;fill-rule:nonzero;fill:rgb(0%,66.666667%,30.980392%);fill-opacity:1;" d="M 5.789062 15.652344 C 5.160156 16.28125 5.160156 17.324219 5.789062 17.953125 C 6.417969 18.578125 7.457031 18.578125 8.085938 17.953125 C 12.445312 13.59375 19.535156 13.59375 23.890625 17.953125 C 24.21875 18.277344 24.628906 18.429688 25.039062 18.429688 C 25.453125 18.429688 25.863281 18.277344 26.191406 17.953125 C 26.820312 17.324219 26.820312 16.28125 26.191406 15.652344 C 20.574219 10.039062 11.425781 10.039062 5.789062 15.652344 Z M 5.789062 15.652344 "/>
<path style=" stroke:none;fill-rule:nonzero;fill:rgb(0%,66.666667%,30.980392%);fill-opacity:1;" d="M 31.523438 10.339844 C 22.960938 1.777344 9.039062 1.777344 0.476562 10.339844 C -0.152344 10.96875 -0.152344 12.011719 0.476562 12.640625 C 1.105469 13.269531 2.144531 13.269531 2.773438 12.640625 C 6.308594 9.105469 11.011719 7.15625 16 7.15625 C 20.988281 7.15625 25.691406 9.105469 29.226562 12.640625 C 29.550781 12.964844 29.960938 13.117188 30.375 13.117188 C 30.785156 13.117188 31.199219 12.964844 31.523438 12.640625 C 32.152344 12.011719 32.152344 10.96875 31.523438 10.339844 Z M 31.523438 10.339844 "/>
<path style=" stroke:none;fill-rule:nonzero;fill:rgb(0%,66.666667%,30.980392%);fill-opacity:1;" d="M 17.777344 26.296875 C 17.777344 27.28125 16.980469 28.074219 16 28.074219 C 15.019531 28.074219 14.222656 27.28125 14.222656 26.296875 C 14.222656 25.316406 15.019531 24.519531 16 24.519531 C 16.980469 24.519531 17.777344 25.316406 17.777344 26.296875 Z M 17.777344 26.296875 "/>
</g>
</svg>
