<?xml version="1.0" encoding="UTF-8"?>
<svg xmlns="http://www.w3.org/2000/svg" xmlns:xlink="http://www.w3.org/1999/xlink" width="32pt" height="32pt" viewBox="0 0 32 32" version="1.1">
<g id="surface1">
<path style=" stroke:none;fill-rule:nonzero;fill:rgb(11.372549%,11.372549%,10.588235%);fill-opacity:1;" d="M 10.5625 20.425781 C 9.925781 21.0625 9.925781 22.089844 10.5625 22.726562 C 11.195312 23.359375 12.226562 23.359375 12.863281 22.726562 C 14.59375 20.996094 17.40625 20.996094 19.136719 22.726562 C 19.457031 23.042969 19.871094 23.203125 20.289062 23.203125 C 20.703125 23.203125 21.121094 23.042969 21.4375 22.726562 C 22.074219 22.089844 22.074219 21.0625 21.4375 20.425781 C 18.441406 17.429688 13.558594 17.429688 10.5625 20.425781 Z M 10.5625 20.425781 "/>
<path style=" stroke:none;fill-rule:nonzero;fill:rgb(11.372549%,11.372549%,10.588235%);fill-opacity:1;" d="M 5.796875 15.660156 C 5.160156 16.296875 5.160156 17.324219 5.796875 17.960938 C 6.429688 18.59375 7.460938 18.59375 8.09375 17.960938 C 12.453125 13.601562 19.546875 13.601562 23.90625 17.960938 C 24.222656 18.277344 24.636719 18.4375 25.054688 18.4375 C 25.46875 18.4375 25.886719 18.277344 26.203125 17.960938 C 26.839844 17.324219 26.839844 16.292969 26.203125 15.660156 C 20.578125 10.035156 11.421875 10.035156 5.796875 15.660156 Z M 5.796875 15.660156 "/>
<path style=" stroke:none;fill-rule:nonzero;fill:rgb(11.372549%,11.372549%,10.588235%);fill-opacity:1;" d="M 31.523438 10.339844 C 22.964844 1.78125 9.035156 1.78125 0.476562 10.339844 C -0.160156 10.976562 -0.160156 12.003906 0.476562 12.640625 C 1.113281 13.277344 2.140625 13.277344 2.777344 12.640625 C 6.308594 9.109375 11.003906 7.164062 16 7.164062 C 20.996094 7.164062 25.691406 9.109375 29.222656 12.640625 C 29.542969 12.957031 29.957031 13.117188 30.375 13.117188 C 30.789062 13.117188 31.207031 12.957031 31.523438 12.640625 C 32.160156 12.003906 32.160156 10.976562 31.523438 10.339844 Z M 31.523438 10.339844 "/>
<path style=" stroke:none;fill-rule:nonzero;fill:rgb(11.372549%,11.372549%,10.588235%);fill-opacity:1;" d="M 17.785156 26.292969 C 17.785156 27.28125 16.984375 28.078125 16 28.078125 C 15.015625 28.078125 14.214844 27.28125 14.214844 26.292969 C 14.214844 25.308594 15.015625 24.511719 16 24.511719 C 16.984375 24.511719 17.785156 25.308594 17.785156 26.292969 Z M 17.785156 26.292969 "/>
</g>
</svg>
